<svg width="470" height="380" viewBox="0 0 489 427" fill="none" xmlns="http://www.w3.org/2000/svg">
<g clip-path="url(#clip0)">
<g opacity="0.6">
<path opacity="0.6" d="M157.656 23.9569L170.642 20.4285L190.458 21.9765L170.048 27.5145L157.656 23.9569Z" fill="#38D39F"/>
<path opacity="0.2" d="M157.656 23.9569L170.642 20.4285L190.458 21.9765L170.048 27.5145L157.656 23.9569Z" fill="black"/>
<path opacity="0.6" d="M125.862 32.7837L144.422 27.7365L154.539 30.3769L229.986 9.89003C229.986 9.89003 241.431 7.93889 241.856 11.6425L144.422 37.9478L125.862 32.7837Z" fill="#38D39F"/>
<path opacity="0.6" d="M232.848 18.5474L151.834 40.5473L144.422 37.9478L242.134 11.4147C242.134 11.4147 244.597 15.3579 232.848 18.5474Z" fill="#38D39F"/>
<path opacity="0.2" d="M232.848 18.5474L151.834 40.5473L144.422 37.9478L242.134 11.4147C242.134 11.4147 244.597 15.3579 232.848 18.5474Z" fill="black"/>
<path opacity="0.6" d="M164.128 46.0561L177.114 42.5335L217.06 17.0578L188.608 24.7864L164.128 46.0561Z" fill="#38D39F"/>
</g>
<path opacity="0.6" d="M406.803 239.703C404.019 238.751 401.065 237.88 398.159 238.365C393.307 239.183 389.886 243.623 388.455 248.174C387.023 252.724 387.054 257.579 386.132 262.252C385.21 266.925 383.002 271.768 378.647 274.011C374.292 276.255 369.149 275.367 364.315 274.829C357.976 274.125 351.578 274.068 345.227 274.66C339.896 275.156 333.642 276.891 332.077 281.822C330.798 285.853 333.339 289.953 335.037 293.838C338.21 301.099 338.464 309.693 334.831 316.755C331.137 323.941 323.853 329.081 320.784 336.529C320.007 338.422 319.516 340.519 320.044 342.488C320.499 343.9 321.248 345.208 322.246 346.332C324.672 349.323 327.535 351.957 329.73 355.094C334.31 361.637 335.553 369.792 336.087 377.667C336.611 385.408 336.566 393.176 335.953 400.911C341.922 399.018 348.521 400.706 354.671 399.486C367.766 396.886 375.942 381.96 389.28 381.049C395.588 380.623 402.375 383.479 408.003 380.699C410.745 379.343 412.692 376.814 413.996 374.121C416.336 369.239 416.849 363.728 415.446 358.523C414.457 354.907 412.534 351.373 412.91 347.652C413.232 344.468 415.209 341.658 417.49 339.333C423.973 332.703 433.387 328.649 438.045 320.722C442.412 313.291 441.308 303.237 435.431 296.852C433.89 295.176 432.059 293.739 430.712 291.916C428.474 288.884 427.758 285.052 427.491 281.337C426.855 272.428 428.425 263.006 425.435 254.354C422.724 246.485 414.445 242.326 406.803 239.703Z" fill="#38A4D3"/>
<path opacity="0.6" d="M406.645 239.966C406.645 239.966 380.097 381.984 345.615 398.919" stroke="#535461" stroke-miterlimit="10"/>
<path opacity="0.6" d="M332.775 279.275C332.775 279.275 361.209 283.037 389.619 311.165" stroke="#535461" stroke-miterlimit="10"/>
<path opacity="0.6" d="M384.609 327.656C384.609 327.656 406.499 307.04 440.683 310.545" stroke="#535461" stroke-miterlimit="10"/>
<path opacity="0.6" d="M320.286 336.617C320.286 336.617 360.221 339.882 375.008 354.656" stroke="#535461" stroke-miterlimit="10"/>
<path opacity="0.6" d="M369.003 368.408C369.003 368.408 391.378 364.634 412.007 377.345" stroke="#535461" stroke-miterlimit="10"/>
<path opacity="0.6" d="M106.865 312.228C108.6 311.644 110.444 311.089 112.257 311.393C115.29 311.901 117.419 314.67 118.323 317.515C119.226 320.36 119.196 323.356 119.772 326.277C120.349 329.198 121.725 332.218 124.443 333.614C127.16 335.011 130.368 334.461 133.383 334.123C137.337 333.683 141.328 333.648 145.289 334.017C148.613 334.327 152.519 335.408 153.496 338.486C154.296 340.998 152.707 343.563 151.676 345.987C149.699 350.52 149.541 355.877 151.803 360.282C154.066 364.686 158.651 367.969 160.568 372.619C161.123 373.783 161.284 375.084 161.029 376.341C160.745 377.22 160.279 378.035 159.658 378.736C158.154 380.599 156.358 382.241 154.988 384.204C152.131 388.293 151.348 393.375 151.021 398.288C150.694 403.119 150.723 407.966 151.106 412.793C147.382 411.625 143.269 412.664 139.43 411.899C131.212 410.316 126.117 401.022 117.795 400.438C113.859 400.169 109.625 401.957 106.113 400.222C104.435 399.291 103.122 397.854 102.377 396.132C100.918 393.088 100.599 389.651 101.473 386.406C102.08 384.151 103.293 381.943 103.056 379.624C102.856 377.638 101.619 375.885 100.199 374.43C96.1539 370.294 90.2826 367.765 87.3773 362.817C86.056 360.467 85.5046 357.786 85.7958 355.128C86.0871 352.47 87.2073 349.959 89.0089 347.927C90.0458 346.952 91.0278 345.924 91.9506 344.848C93.3456 342.955 93.7702 340.566 93.9582 338.247C94.3585 332.691 93.3517 326.809 95.238 321.411C96.9302 316.481 102.098 313.887 106.865 312.228Z" fill="#38A4D3"/>
<path opacity="0.6" d="M106.962 312.415C106.962 312.415 123.527 401.022 145.028 411.584" stroke="#535461" stroke-miterlimit="10"/>
<path opacity="0.6" d="M153.047 336.938C153.047 336.938 135.306 339.275 117.583 356.829" stroke="#535461" stroke-miterlimit="10"/>
<path opacity="0.6" d="M120.7 367.14C120.7 367.14 107.047 354.288 85.7154 356.467" stroke="#535461" stroke-miterlimit="10"/>
<path opacity="0.6" d="M160.841 372.713C160.841 372.713 135.93 374.734 126.699 383.964" stroke="#535461" stroke-miterlimit="10"/>
<path opacity="0.6" d="M130.472 392.546C130.472 392.546 116.521 390.209 103.645 398.124" stroke="#535461" stroke-miterlimit="10"/>
<path d="M296.491 19.4459C294.441 19.4459 292.166 19.4459 290.607 19.5627C289.911 19.6008 289.225 19.7366 288.57 19.9658L278.046 23.6052C286.538 23.8096 295.417 23.7454 304.127 23.6811L352.977 23.3248C357.963 23.2897 363.198 23.243 367.358 22.9568C370.142 22.764 372.211 22.4836 374.758 22.2616C384.008 21.4671 397.497 21.619 409.543 21.6774C421.589 21.7358 436.133 21.4145 440.373 20.252H414.516C411.726 20.252 408.803 20.252 406.34 20.1177C403.465 19.96 401.706 19.6503 399.177 19.44C394.992 19.0954 389.218 19.0545 383.85 19.0311C354.391 18.9201 325.283 19.5919 296.491 19.4459Z" fill="#F4F4F4"/>
<path d="M184.823 88.4202C184.12 88.4202 183.331 88.4202 182.791 88.4552C182.553 88.4658 182.316 88.505 182.088 88.572L178.448 89.6294C181.384 89.6878 184.441 89.6703 187.449 89.6294L204.311 89.5242C206.034 89.5242 207.835 89.5242 209.273 89.4191C210.231 89.3607 210.94 89.2789 211.826 89.2146C215.016 88.981 219.668 89.0277 223.823 89.0394C227.978 89.0511 232.994 88.9634 234.462 88.6246H225.546C224.581 88.6246 223.575 88.6246 222.725 88.5837C221.731 88.537 221.13 88.4494 220.251 88.3851C218.807 88.2858 216.818 88.2741 214.962 88.2683C204.796 88.2683 194.764 88.4903 184.823 88.4202Z" fill="#F4F4F4"/>
<path d="M354.851 72.0056C353.638 72.0056 352.273 72.0056 351.339 72.064C350.927 72.0833 350.52 72.152 350.126 72.2685L343.848 74.0969C348.925 74.2021 354.214 74.167 359.406 74.1378L388.556 73.9567C391.528 73.9567 394.652 73.9158 397.132 73.7698C398.794 73.6763 400.019 73.5303 401.548 73.4193C407.067 73.022 415.11 73.098 422.297 73.1155C429.485 73.133 438.158 72.9811 440.688 72.397H425.257C423.595 72.397 421.849 72.397 420.405 72.3269C418.689 72.2451 417.645 72.0932 416.159 71.988C413.666 71.8128 410.221 71.7953 407.019 71.7836C389.387 71.7427 372.022 72.0815 354.851 72.0056Z" fill="#F4F4F4"/>
<path d="M272.607 238.979H272.68L268.919 219.66C268.918 218.238 268.615 216.831 268.03 215.525C267.445 214.22 266.59 213.043 265.516 212.066L248.127 203.887L248.024 204.115C246.729 202.61 245.684 200.922 244.925 199.109L245.228 198.694C246.187 197.543 246.87 196.203 247.229 194.769C247.296 194.402 247.33 194.031 247.332 193.659L247.593 193.53C249.229 193.736 250.884 193.33 252.218 192.395C253.552 191.46 254.463 190.069 254.763 188.506C254.763 188.366 254.811 188.22 254.829 188.08C254.493 189.357 253.745 190.497 252.692 191.337C251.638 192.178 250.335 192.673 248.97 192.753C251.395 191.196 253.384 189.086 254.759 186.61C256.135 184.135 256.855 181.371 256.855 178.564C256.855 178.324 256.855 178.09 256.855 177.857C257.623 177.403 258.284 176.799 258.794 176.083C259.304 175.368 259.652 174.557 259.815 173.703C259.815 173.563 259.863 173.417 259.882 173.277C259.666 174.086 259.282 174.845 258.753 175.508C258.225 176.17 257.563 176.723 256.807 177.132C256.671 175.551 256.305 173.995 255.721 172.512C255.866 172.512 256.012 172.512 256.158 172.512C257.868 172.512 259.507 171.857 260.717 170.693C261.926 169.528 262.605 167.949 262.605 166.302C262.605 166.156 262.605 166.016 262.605 165.87C262.55 166.718 262.314 167.545 261.911 168.301C261.508 169.057 260.947 169.724 260.264 170.261C259.58 170.798 258.789 171.193 257.939 171.422C257.09 171.65 256.2 171.707 255.327 171.589L255.187 171.285C257.112 170.73 258.831 169.657 260.144 168.193C261.458 166.728 262.309 164.933 262.599 163.019C262.599 162.873 262.599 162.733 262.599 162.587C262.514 163.793 262.062 164.949 261.301 165.91C261.514 164.302 261.065 162.676 260.049 161.383C259.034 160.089 257.532 159.23 255.867 158.989C254.202 158.749 252.505 159.146 251.14 160.095C249.774 161.045 248.85 162.472 248.564 164.07C248.188 163.844 247.804 163.63 247.411 163.428C247.771 162.18 248.525 161.072 249.571 160.259C250.616 159.445 251.899 158.966 253.24 158.889H252.791C251.438 158.875 250.114 159.273 249.008 160.025C247.902 160.776 247.069 161.844 246.629 163.077C242.762 161.345 238.376 161.014 234.276 162.145C230.176 163.276 226.637 165.793 224.308 169.234C222.944 170.187 221.185 171.571 221.276 172.78C220.703 173.335 220.189 173.944 219.741 174.597C217.315 178.318 217.721 183.05 217.734 187.449C217.746 191.848 216.921 196.854 213.112 199.284C213.858 199.592 214.659 199.754 215.471 199.76C216.282 199.766 217.086 199.616 217.837 199.319C219.332 198.724 220.737 197.938 222.016 196.983C223.138 196.211 224.296 195.405 224.963 194.243C225.012 194.155 225.061 194.068 225.103 193.98C225.94 194.519 226.832 194.973 227.766 195.335C228.136 198.221 228.215 201.551 226.886 202.649L226.686 202.813L226.631 202.853C226.706 202.664 226.791 202.479 226.886 202.299C226.886 202.299 223.302 205.576 215.605 205.4C207.908 205.225 203.965 212.644 203.965 212.644L198.591 234.895H198.676L198.591 235.257H198.676L198.591 235.62L198.737 235.59C198.814 235.89 198.975 236.163 199.203 236.379C199.431 236.596 199.717 236.747 200.029 236.817C200.496 236.922 201.072 237.068 201.721 237.261C201.721 241.456 201.521 246.947 200.563 248.36C200.563 248.36 198.058 261.125 198.591 264.717C198.998 267.463 199.713 281.793 200.035 288.575C199.431 290.887 198.95 293.226 198.591 295.585L190.531 342.155C190.531 342.155 184.453 379.408 184.781 390.67L183.725 397.172C183.725 397.172 167.349 416.958 172.171 419.745C176.993 422.531 184.368 423.764 191.434 413.254C192.391 410.785 193.929 408.563 195.929 406.764C196.722 406.095 197.338 405.253 197.725 404.308C198.112 403.363 198.26 402.342 198.155 401.332L197.676 396.722L198.537 397.003L198.585 396.845L199.071 397.003C199.071 397.003 207.131 371.475 206.234 353.71C206.234 353.71 221.185 302.496 232.509 294.44V294.101C232.839 293.899 233.191 293.73 233.558 293.599L235.984 343.189L233.558 397.85L232.976 401.139C232.976 401.139 216.599 420.925 221.421 423.711C226.243 426.498 233.619 427.73 240.685 417.221C241.641 414.752 243.18 412.53 245.179 410.731C245.973 410.061 246.589 409.219 246.976 408.274C247.363 407.329 247.51 406.309 247.405 405.298L246.653 398.066C249.437 388.877 256.764 362.344 253.695 346.98L258.669 314.313C263.685 308.886 263.011 295.065 263.011 295.065C266.954 287.132 267.864 255.925 267.864 255.925L268.858 240.521C269.596 240.404 270.343 240.348 271.09 240.351C271.258 240.351 271.424 240.323 271.582 240.27L271.897 240.311L272.037 240.03C272.186 239.918 272.311 239.779 272.407 239.621L272.704 239.709L272.631 239.341H272.704L272.607 238.979ZM258.596 270.302C258.147 269.233 257.65 268.17 257.098 267.118L256.697 267.159C256.661 267.028 256.617 266.899 256.564 266.774C256.515 266.657 256.478 266.535 256.455 266.411C256.484 266.279 256.526 266.15 256.582 266.026C256.819 265.509 257.022 264.978 257.189 264.437C257.834 263.444 258.165 262.29 258.141 261.119C258.735 263.374 258.814 266.662 258.59 270.302H258.596ZM257.098 257.111L256.073 246.801C256.174 246.52 256.279 246.25 256.388 245.989L257.735 259.068L257.098 257.111ZM209.636 258.484C208.902 259.121 208.708 260.237 208.739 261.288C208.739 261.405 208.739 261.516 208.739 261.633C208.744 262.68 208.895 263.721 209.188 264.729L207.617 271.155L207.847 258.817C208.868 257.511 209.766 256.119 210.528 254.658C210.431 256.597 210.158 258.04 209.636 258.484Z" fill="url(#paint0_linear)"/>
<path d="M219.772 178.879C217.43 182.466 217.825 187.022 217.837 191.264C217.849 195.505 217.054 200.324 213.385 202.667C214.103 202.962 214.875 203.117 215.656 203.122C216.437 203.127 217.212 202.982 217.934 202.696C219.373 202.117 220.726 201.354 221.955 200.429C223.093 199.763 224.063 198.861 224.794 197.789C225.691 196.223 225.491 194.313 225.449 192.531C225.457 189.378 225.743 186.232 226.304 183.126C226.595 181.216 228.518 175.964 226.152 174.948C224.017 174.042 220.724 177.413 219.772 178.879Z" fill="black"/>
<path d="M186.673 383.801L185.126 393.334C185.126 393.334 169.356 412.396 173.99 415.077C178.624 417.758 185.745 418.95 192.544 408.821C193.465 406.44 194.948 404.299 196.875 402.564V402.564C197.643 401.917 198.239 401.102 198.613 400.187C198.987 399.272 199.127 398.284 199.022 397.307L197.494 382.585L186.673 383.801Z" fill="#333333"/>
<path d="M234.122 387.621L232.576 397.155C232.576 397.155 216.8 416.21 221.452 418.898C226.104 421.585 233.206 422.771 240.006 412.641C240.927 410.261 242.409 408.119 244.336 406.385C245.105 405.738 245.701 404.922 246.074 404.008C246.448 403.093 246.588 402.105 246.483 401.127L244.943 386.418L234.122 387.621Z" fill="#333333"/>
<path d="M209.57 272.352C209.57 272.352 202.152 277.505 199.392 295.45L191.628 340.315C191.628 340.315 185.06 381.032 186.273 388.842L199.386 393.165C199.386 393.165 207.15 368.571 206.288 351.455C206.288 351.455 222.058 297.367 233.115 293.546L235.444 341.32L233.018 395.157L244.233 397.318C244.233 397.318 255.618 363.086 251.997 344.976L257.862 306.421C257.862 306.421 264.588 285.817 255.272 268.035L209.57 272.352Z" fill="#45494E"/>
<g opacity="0.1">
<path opacity="0.1" d="M232.127 294.352L232.084 293.54C221.039 297.361 205.257 351.449 205.257 351.449C206.052 367.187 199.55 389.239 198.5 392.692L199.908 393.159C199.908 393.159 207.671 368.565 206.81 351.449C206.81 351.455 221.215 302.11 232.127 294.352Z" fill="black"/>
<path opacity="0.1" d="M255.812 268.035L254.332 268.176C263.539 285.923 256.849 306.421 256.849 306.421L250.984 344.976C254.417 362.128 244.385 393.743 243.311 397.038L244.773 397.318C244.773 397.318 256.158 363.086 252.537 344.976L258.402 306.421C258.402 306.421 265.122 285.817 255.812 268.035Z" fill="black"/>
</g>
<path d="M199.477 237.209C199.478 237.572 199.607 237.925 199.843 238.209C200.078 238.493 200.407 238.692 200.775 238.774C204.382 239.601 207.764 241.162 210.692 243.354C216.211 247.508 204.827 235.047 204.827 235.047L201.03 235.877L199.477 237.209V237.209Z" fill="#F55F44"/>
<path opacity="0.1" d="M199.477 237.209C199.478 237.572 199.607 237.925 199.843 238.209C200.078 238.493 200.407 238.692 200.775 238.774C204.382 239.601 207.764 241.162 210.692 243.354C216.211 247.508 204.827 235.047 204.827 235.047L201.03 235.877L199.477 237.209V237.209Z" fill="black"/>
<path d="M253.653 248.179C253.653 248.179 262.599 242.145 269.265 242.232C269.457 242.235 269.647 242.2 269.825 242.131C270.003 242.062 270.165 241.96 270.302 241.83C270.438 241.7 270.547 241.545 270.621 241.375C270.695 241.204 270.733 241.021 270.733 240.836V240.836C270.733 240.836 257.625 235.882 253.653 248.179Z" fill="#F55F44"/>
<path opacity="0.1" d="M270.733 240.836C270.733 240.836 257.619 235.877 253.653 248.173C253.653 248.173 263.315 241.029 270.029 242.192" fill="black"/>
<path d="M238.471 199.15C247.904 199.15 255.551 191.785 255.551 182.7C255.551 173.614 247.904 166.249 238.471 166.249C229.038 166.249 221.391 173.614 221.391 182.7C221.391 191.785 229.038 199.15 238.471 199.15Z" fill="black"/>
<path d="M226.656 194.225C226.656 194.225 229.082 203.864 226.656 205.856C224.23 207.848 219.408 211.505 223.017 214.332C226.625 217.16 239.751 221.979 244.063 219.648C248.376 217.318 253.38 217.989 252.173 213.17C250.966 208.351 241.467 209.373 241.316 185.463L226.656 194.225Z" fill="#FDB797"/>
<path opacity="0.1" d="M202.497 234.299C202.497 234.299 203.013 247.595 201.46 249.92C201.46 249.92 199.034 262.188 199.562 265.693C200.09 269.198 201.115 292.115 201.115 292.115C201.115 292.115 199.216 312.222 209.394 310.394C219.571 308.565 207.841 287.459 207.841 287.459L208.357 260.038C208.357 260.038 213.015 254.389 213.53 247.77C214.046 241.152 202.497 234.299 202.497 234.299Z" fill="black"/>
<path d="M202.328 234.299C202.328 234.299 202.843 247.595 201.29 249.92C201.29 249.92 198.864 262.188 199.392 265.693C199.92 269.198 200.945 292.115 200.945 292.115C200.945 292.115 199.046 312.222 209.224 310.394C219.402 308.565 207.671 287.459 207.671 287.459L208.187 260.038C208.187 260.038 212.845 254.389 213.361 247.77C213.876 241.152 202.328 234.299 202.328 234.299Z" fill="#FDB797"/>
<path opacity="0.1" d="M267.372 235.795L265.989 257.234C265.989 257.234 265.128 287.313 261.331 294.954C261.331 294.954 262.368 316.06 252.185 315.558C242.001 315.055 253.907 292.459 253.907 292.459C253.907 292.459 259.366 268.999 256.552 261.539L253.907 235.795H267.372Z" fill="black"/>
<path d="M267.548 235.795L266.165 257.234C266.165 257.234 265.304 287.313 261.507 294.954C261.507 294.954 262.544 316.06 252.361 315.558C242.177 315.055 254.083 292.459 254.083 292.459C254.083 292.459 259.542 268.999 256.728 261.539L254.083 235.795H267.548Z" fill="#FDB797"/>
<path opacity="0.1" d="M234.419 215.028C234.419 215.028 242.662 218.679 247.157 207.796L263.909 215.688C264.942 216.629 265.765 217.762 266.328 219.02C266.891 220.277 267.183 221.632 267.184 223.002L270.824 241.613C270.824 241.613 258.572 237.623 254.781 248.594L255.812 259.068L255.848 259.173C256.644 261.757 256.452 264.53 255.308 266.99C255.211 267.208 255.16 267.444 255.16 267.682C255.16 267.92 255.211 268.155 255.308 268.374C256.17 270.366 255.139 274.52 250.456 275.022C245.774 275.524 240.624 275.022 236.997 276.021C233.37 277.02 222.507 274.029 218.88 276.021C215.253 278.013 207.665 274.525 207.665 274.525L209.733 266.049C209.733 266.049 208.351 261.896 210.079 260.4C211.808 258.905 210.771 245.942 209.218 242.291C209.218 242.291 203.007 236.642 199.386 237.618L204.56 216.178C204.56 216.178 208.357 209.034 215.775 209.198C223.192 209.361 226.644 206.207 226.644 206.207C226.644 206.207 222.337 213.865 234.419 215.028Z" fill="black"/>
<path opacity="0.1" d="M235.281 214.671C237.513 215.255 243.542 215.898 247.163 207.153L263.909 215.028C264.942 215.969 265.765 217.102 266.328 218.36C266.891 219.617 267.183 220.972 267.184 222.341L270.824 240.953C270.824 240.953 258.572 236.963 254.781 247.934L255.818 258.402L256.497 260.482C256.798 261.37 256.877 262.314 256.727 263.236C256.577 264.159 256.204 265.035 255.636 265.792C255.405 266.052 255.251 266.368 255.192 266.705C255.134 267.043 255.172 267.39 255.302 267.708C256.164 269.7 255.133 273.854 250.45 274.356C245.768 274.858 240.618 274.356 236.991 275.355C233.364 276.354 222.501 273.363 218.874 275.355C215.247 277.347 207.659 273.86 207.659 273.86L209.727 265.383C209.727 265.383 208.344 261.23 210.073 259.734C211.802 258.239 210.765 245.276 209.212 241.625C209.212 241.625 203.001 235.976 199.38 236.952L204.554 215.512C204.554 215.512 208.351 208.368 215.768 208.532C223.186 208.695 226.638 205.541 226.638 205.541C226.638 205.541 222.604 212.691 233.261 214.21C233.943 214.324 234.618 214.478 235.281 214.671V214.671Z" fill="black"/>
<path d="M235.281 214.975C237.513 215.559 243.542 216.202 247.163 207.457L263.909 215.361C264.942 216.302 265.765 217.435 266.328 218.693C266.891 219.95 267.183 221.305 267.184 222.674L270.824 241.286C270.824 241.286 258.572 237.296 254.781 248.267L255.818 258.735L255.854 258.84C256.65 261.424 256.458 264.197 255.315 266.657C255.217 266.875 255.167 267.111 255.167 267.349C255.167 267.587 255.217 267.822 255.315 268.041C256.176 270.033 255.145 274.187 250.462 274.689C245.78 275.191 240.63 274.689 237.003 275.688C233.376 276.687 222.513 273.696 218.886 275.688C215.259 277.68 207.671 274.192 207.671 274.192L209.74 265.716C209.74 265.716 208.357 261.563 210.085 260.067C211.814 258.572 210.777 245.609 209.224 241.958C209.224 241.958 203.013 236.309 199.392 237.285L204.566 215.845C204.566 215.845 208.363 208.701 215.781 208.865C223.199 209.028 226.656 205.909 226.656 205.909C226.656 205.909 222.622 213.059 233.279 214.578C233.954 214.672 234.622 214.804 235.281 214.975V214.975Z" fill="#C57A6D"/>
<path opacity="0.1" d="M241.661 186.281L226.995 195.09C227.359 196.604 227.642 198.134 227.845 199.676C229.522 200.325 231.313 200.659 233.121 200.657C236.761 200.657 240.103 198.682 242.614 196.504C241.966 193.132 241.647 189.709 241.661 186.281Z" fill="black"/>
<path d="M232.782 199.822C240.597 199.822 246.932 193.72 246.932 186.193C246.932 178.666 240.597 172.564 232.782 172.564C224.967 172.564 218.631 178.666 218.631 186.193C218.631 193.72 224.967 199.822 232.782 199.822Z" fill="#FDB797"/>
<path d="M253.653 175.725C257.083 175.725 259.864 173.046 259.864 169.743C259.864 166.439 257.083 163.761 253.653 163.761C250.222 163.761 247.442 166.439 247.442 169.743C247.442 173.046 250.222 175.725 253.653 175.725Z" fill="black"/>
<path d="M254.86 176.058C253.287 176.057 251.774 175.482 250.625 174.449C249.476 173.415 248.776 172.001 248.667 170.49C248.667 170.631 248.667 170.765 248.667 170.905C248.667 172.492 249.321 174.013 250.486 175.135C251.651 176.257 253.231 176.887 254.878 176.887C256.525 176.887 258.105 176.257 259.27 175.135C260.434 174.013 261.089 172.492 261.089 170.905C261.089 170.765 261.089 170.625 261.089 170.49C260.979 172.007 260.274 173.427 259.117 174.461C257.96 175.495 256.438 176.066 254.86 176.058V176.058Z" fill="black"/>
<path d="M251.311 181.999C249.765 181.724 248.384 180.895 247.448 179.679C246.511 178.462 246.089 176.949 246.265 175.444C246.229 175.579 246.198 175.713 246.168 175.847C246.011 176.623 246.015 177.422 246.18 178.197C246.345 178.971 246.668 179.707 247.131 180.36C247.593 181.014 248.185 181.573 248.873 182.005C249.561 182.437 250.331 182.733 251.139 182.876C251.946 183.019 252.775 183.007 253.578 182.839C254.38 182.672 255.141 182.353 255.814 181.901C256.488 181.449 257.062 180.873 257.503 180.206C257.944 179.538 258.243 178.794 258.384 178.015C258.384 177.874 258.432 177.74 258.444 177.606C258.053 179.071 257.099 180.339 255.775 181.154C254.452 181.969 252.857 182.271 251.311 181.999V181.999Z" fill="black"/>
<path d="M246.483 196.293C244.937 196.019 243.556 195.19 242.62 193.973C241.683 192.757 241.261 191.244 241.437 189.739C241.401 189.873 241.37 190.008 241.34 190.142C241.183 190.918 241.187 191.717 241.352 192.491C241.517 193.266 241.84 194.002 242.303 194.655C242.765 195.309 243.357 195.868 244.045 196.299C244.733 196.731 245.503 197.027 246.311 197.171C247.118 197.314 247.947 197.301 248.75 197.134C249.552 196.967 250.313 196.648 250.986 196.196C251.66 195.744 252.234 195.167 252.675 194.5C253.116 193.833 253.415 193.088 253.556 192.309C253.556 192.169 253.604 192.035 253.616 191.9C253.225 193.366 252.271 194.634 250.947 195.449C249.624 196.264 248.029 196.566 246.483 196.293Z" fill="black"/>
<path d="M254.86 172.903C253.29 172.903 251.78 172.33 250.631 171.301C249.482 170.271 248.78 168.861 248.667 167.353C248.667 167.494 248.667 167.628 248.667 167.768C248.667 169.355 249.321 170.876 250.486 171.998C251.651 173.12 253.231 173.75 254.878 173.75C256.525 173.75 258.105 173.12 259.27 171.998C260.434 170.876 261.089 169.355 261.089 167.768C261.089 167.628 261.089 167.488 261.089 167.353C260.975 168.867 260.268 170.282 259.112 171.312C257.955 172.343 256.435 172.911 254.86 172.903V172.903Z" fill="black"/>
<path d="M246.192 169.69C246.209 168.176 246.823 166.724 247.908 165.628C248.993 164.532 250.469 163.873 252.039 163.784H251.609C250.793 163.776 249.984 163.922 249.227 164.215C248.47 164.508 247.78 164.941 247.197 165.491C246.614 166.04 246.149 166.695 245.829 167.417C245.509 168.14 245.34 168.916 245.331 169.702C245.322 170.487 245.474 171.267 245.778 171.996C246.082 172.725 246.532 173.389 247.103 173.95C247.673 174.512 248.353 174.96 249.103 175.268C249.854 175.576 250.66 175.739 251.475 175.748H251.906C250.333 175.626 248.866 174.933 247.805 173.807C246.744 172.682 246.167 171.21 246.192 169.69V169.69Z" fill="black"/>
<path opacity="0.1" d="M252.446 226.074C253.659 229.398 252.446 235.047 252.446 235.047C252.446 235.047 251.584 242.858 252.961 244.189" fill="black"/>
<path opacity="0.1" d="M210.534 227.903C211.747 231.227 210.534 236.876 210.534 236.876C210.534 236.876 209.673 244.686 211.05 246.018" fill="black"/>
<path opacity="0.1" d="M210.176 259.974C210.176 259.974 211.389 260.64 214.319 259.974C217.248 259.308 218.807 259.81 219.323 259.974" fill="black"/>
<path opacity="0.1" d="M212.245 248.179C212.245 248.179 220.184 248.676 226.565 246.018C226.565 246.018 244.154 250.171 249.164 247.186" fill="black"/>
<path d="M206.98 319.793H202.843C200.984 319.793 199.477 321.243 199.477 323.032C199.477 324.821 200.984 326.271 202.843 326.271H206.98C208.839 326.271 210.346 324.821 210.346 323.032C210.346 321.243 208.839 319.793 206.98 319.793Z" fill="#FDB797"/>
<path d="M199.477 321.458C199.477 321.458 205.039 321.207 205.294 321.207C205.548 321.207 210.352 321.954 210.352 321.954H208.581L199.477 321.458Z" fill="#F0E4E4"/>
<path d="M238.647 294.539C238.647 294.539 244.209 294.376 244.464 294.376C244.718 294.376 249.522 294.872 249.522 294.872H247.751L238.647 294.539Z" fill="#F0E4E4"/>
<path d="M238.647 295.702C238.647 295.702 244.209 295.538 244.464 295.538C244.718 295.538 249.522 296.035 249.522 296.035H247.751L238.647 295.702Z" fill="#F0E4E4"/>
<path d="M238.647 296.864C238.647 296.864 244.209 296.701 244.464 296.701C244.718 296.701 249.522 297.197 249.522 297.197H247.751L238.647 296.864Z" fill="#F0E4E4"/>
<path d="M238.647 298.027C238.647 298.027 244.209 297.863 244.464 297.863C244.718 297.863 249.522 298.36 249.522 298.36H247.751L238.647 298.027Z" fill="#F0E4E4"/>
<path d="M199.477 326.055C199.477 326.055 205.039 325.862 205.294 325.862C205.548 325.862 210.352 326.447 210.352 326.447H208.581L199.477 326.055Z" fill="#F0E4E4"/>
<path d="M199.477 325.477C199.477 325.477 205.039 325.284 205.294 325.284C205.548 325.284 210.352 325.868 210.352 325.868H208.581L199.477 325.477Z" fill="#F0E4E4"/>
<path d="M199.477 324.893C199.477 324.893 205.039 324.7 205.294 324.7C205.548 324.7 210.352 325.284 210.352 325.284H208.581L199.477 324.893Z" fill="#F0E4E4"/>
<path d="M199.477 324.308C199.477 324.308 205.039 324.116 205.294 324.116C205.548 324.116 210.352 324.7 210.352 324.7H208.581L199.477 324.308Z" fill="#F0E4E4"/>
<path d="M199.477 320.71C199.477 320.71 205.039 320.459 205.294 320.459C205.548 320.459 210.352 321.207 210.352 321.207H208.581L199.477 320.71Z" fill="#F0E4E4"/>
<path d="M199.477 319.711C199.477 319.711 205.039 319.46 205.294 319.46C205.548 319.46 210.352 320.208 210.352 320.208H208.581L199.477 319.711Z" fill="#F0E4E4"/>
<path opacity="0.1" d="M235.202 177.471C234.049 182.244 235.851 187.513 237.179 192.496C238.507 197.479 239.235 203.338 236.415 206.96C237.189 207.144 237.998 207.144 238.772 206.961C239.546 206.778 240.263 206.417 240.861 205.909C242.103 204.857 243.18 203.637 244.057 202.287C244.981 201.179 245.639 199.888 245.986 198.507C246.368 196.451 245.586 194.254 244.979 192.163C244.012 188.466 243.315 184.709 242.893 180.918C242.577 178.581 242.814 171.962 240.2 171.337C237.828 170.771 235.669 175.532 235.202 177.471Z" fill="black"/>
<path d="M235.548 177.284C234.395 182.057 236.197 187.326 237.525 192.309C238.853 197.292 239.581 203.151 236.761 206.773C237.531 206.954 238.334 206.953 239.104 206.771C239.874 206.589 240.586 206.231 241.182 205.728C242.424 204.676 243.501 203.456 244.379 202.106C245.302 200.998 245.961 199.707 246.307 198.326C246.69 196.27 245.907 194.073 245.301 191.982C244.334 188.285 243.636 184.527 243.214 180.737C242.899 178.4 243.135 171.781 240.521 171.156C238.156 170.607 236.008 175.351 235.548 177.284Z" fill="black"/>
<path opacity="0.1" d="M229.452 180.877C230.629 182.086 230.901 183.891 231.92 185.229C233.455 187.256 236.324 187.811 238.926 187.916C239.632 187.878 240.336 188.023 240.964 188.337C242.062 189.032 242.092 190.562 242.826 191.608C244.075 193.396 247.114 193.156 248.703 191.637C250.292 190.119 250.759 187.834 250.954 185.691C251.168 183.301 251.142 180.896 250.875 178.511C250.571 175.812 249.844 172.944 247.715 171.162C246.174 169.877 244.118 169.351 242.141 168.866C239.332 168.177 236.36 167.482 233.576 168.282C232.187 168.733 230.872 169.373 229.67 170.181C227.96 171.228 226.276 172.313 224.618 173.435C222.75 174.696 219.286 177.197 222.671 178.552C224.909 179.428 227.65 179.037 229.452 180.877Z" fill="black"/>
<path d="M229.798 180.713C230.974 181.923 231.247 183.728 232.266 185.065C233.801 187.093 236.67 187.647 239.272 187.753C239.978 187.714 240.682 187.86 241.31 188.173C242.407 188.868 242.438 190.399 243.172 191.445C244.421 193.232 247.46 192.993 249.049 191.474C250.638 189.955 251.105 187.671 251.299 185.527C251.514 183.137 251.487 180.733 251.22 178.347C250.917 175.649 250.189 172.78 248.06 170.999C246.52 169.713 244.464 169.188 242.486 168.703C239.678 168.013 236.706 167.318 233.922 168.119C232.533 168.57 231.218 169.209 230.016 170.017C228.306 171.065 226.621 172.149 224.964 173.271C223.095 174.533 219.632 177.033 223.017 178.388C225.255 179.265 227.996 178.856 229.798 180.713Z" fill="black"/>
<path d="M239.005 294.539C239.005 294.539 244.567 294.376 244.821 294.376C245.076 294.376 249.88 294.872 249.88 294.872H248.109L239.005 294.539Z" fill="#F0E4E4"/>
<path d="M239.005 295.702C239.005 295.702 244.567 295.538 244.821 295.538C245.076 295.538 249.88 296.035 249.88 296.035H248.109L239.005 295.702Z" fill="#F0E4E4"/>
<path d="M239.005 296.864C239.005 296.864 244.567 296.701 244.821 296.701C245.076 296.701 249.88 297.197 249.88 297.197H248.109L239.005 296.864Z" fill="#F0E4E4"/>
<path d="M239.005 298.027C239.005 298.027 244.567 297.863 244.821 297.863C245.076 297.863 249.88 298.36 249.88 298.36H248.109L239.005 298.027Z" fill="#F0E4E4"/>
<path d="M236.5 362.046C236.5 362.046 242.062 361.882 242.316 361.882C242.571 361.882 247.375 362.379 247.375 362.379H245.604L236.5 362.046Z" fill="#F0E4E4"/>
<path d="M236.5 363.209C236.5 363.209 242.062 363.045 242.316 363.045C242.571 363.045 247.375 363.541 247.375 363.541H245.604L236.5 363.209Z" fill="#F0E4E4"/>
<path d="M236.5 364.371C236.5 364.371 242.062 364.207 242.316 364.207C242.571 364.207 247.375 364.704 247.375 364.704H245.604L236.5 364.371Z" fill="#F0E4E4"/>
<path d="M236.5 365.533C236.5 365.533 242.062 365.37 242.316 365.37C242.571 365.37 247.375 365.866 247.375 365.866H245.604L236.5 365.533Z" fill="#F0E4E4"/>
<path d="M352.142 339.731H342.467V302.017H345.676V298.512H309.454V302.017H313.038V339.731H302.994C296.043 339.731 290.402 344.988 290.402 351.414V409.154C290.424 411.534 291.2 413.851 292.626 415.795C294.053 417.739 296.062 419.217 298.385 420.031C298.349 420.263 298.331 420.497 298.33 420.732C298.396 422.12 299.011 423.432 300.049 424.397C301.088 425.362 302.47 425.908 303.913 425.922C305.356 425.936 306.75 425.418 307.809 424.473C308.867 423.529 309.51 422.23 309.605 420.843H346.307C346.483 422.199 347.183 423.441 348.267 424.323C349.35 425.205 350.739 425.662 352.156 425.604C353.573 425.546 354.916 424.977 355.918 424.009C356.92 423.042 357.508 421.747 357.564 420.381C357.563 420.161 357.547 419.94 357.516 419.721C359.645 418.813 361.458 417.333 362.738 415.46C364.018 413.586 364.71 411.396 364.733 409.154V351.414C364.727 344.941 359.092 339.731 352.142 339.731ZM316.071 302.017H339.465V339.731H316.071V302.017Z" fill="url(#paint1_linear)"/>
<path d="M316.508 302.005H313.609V345.304H316.508V302.005Z" fill="#333333"/>
<path d="M341.885 302.005H338.986V345.304H341.885V302.005Z" fill="#333333"/>
<path d="M344.972 299.908H310.163V303.401H344.972V299.908Z" fill="#333333"/>
<g opacity="0.5">
<path opacity="0.5" d="M294.06 362.665H309.884C309.884 362.665 314.858 195.978 294.06 144.506H290.105C290.105 144.506 303.94 333.135 294.06 362.665Z" fill="#38D39F"/>
<path opacity="0.5" d="M304.941 135.937C304.941 135.937 317.8 170.233 311.868 185.474C311.868 185.474 302.964 154.034 292.58 149.256C282.196 144.477 271.315 185.474 271.315 185.474C271.315 185.474 265.383 159.771 276.258 138.793C276.258 138.793 254.496 150.225 243.614 172.138C243.614 172.138 241.637 157.849 267.354 128.325C267.354 128.325 244.603 134.038 229.749 147.381C229.749 147.381 224.806 136.901 255.466 119.755C255.466 119.755 251.512 107.371 227.772 113.084C227.772 113.084 227.772 96.8906 265.377 99.7472C265.377 99.7472 265.377 89.2672 240.649 91.1716C240.649 91.1716 240.648 77.835 269.331 82.596C269.331 82.596 263.4 74.0203 259.439 72.1159C259.439 72.1159 267.324 71.1637 273.286 75.9247C273.286 75.9247 272.297 58.7793 287.133 52.1081L289.111 75.9247C289.111 75.9247 305.736 57.056 301.969 60.6837C300.98 61.6359 298.014 73.0681 299.003 78.793C299.003 78.793 315.816 65.4564 336.608 79.7452C336.608 79.7452 310.891 81.6496 306.937 90.2252C306.937 90.2252 328.699 86.4164 333.624 89.273C333.624 89.273 316.811 94.9862 317.8 98.8009C317.8 98.8009 347.471 98.8009 351.432 109.281C351.432 109.281 320.772 113.09 318.788 115.952C318.788 115.952 354.398 140.721 356.393 147.392C356.393 147.392 319.795 126.432 313.863 126.432C307.931 126.432 340.551 156.914 338.592 164.538C338.573 164.514 311.868 134.056 304.941 135.937Z" fill="#38D39F"/>
</g>
<path d="M341.394 341.004H313.736C301.65 341.004 291.852 350.441 291.852 362.081V400.812C291.852 412.452 301.65 421.889 313.736 421.889H341.394C353.48 421.889 363.278 412.452 363.278 400.812V362.081C363.278 350.441 353.48 341.004 341.394 341.004Z" fill="#38A4D3"/>
<path d="M304.887 427C307.881 427 310.309 424.662 310.309 421.777C310.309 418.893 307.881 416.555 304.887 416.555C301.892 416.555 299.464 418.893 299.464 421.777C299.464 424.662 301.892 427 304.887 427Z" fill="#333333"/>
<path d="M304.887 423.951C306.133 423.951 307.143 422.978 307.143 421.778C307.143 420.577 306.133 419.604 304.887 419.604C303.64 419.604 302.63 420.577 302.63 421.778C302.63 422.978 303.64 423.951 304.887 423.951Z" fill="#F0E4E4"/>
<path d="M350.971 426.655C353.966 426.655 356.393 424.317 356.393 421.433C356.393 418.549 353.966 416.21 350.971 416.21C347.976 416.21 345.549 418.549 345.549 421.433C345.549 424.317 347.976 426.655 350.971 426.655Z" fill="#333333"/>
<path d="M350.971 423.606C352.217 423.606 353.227 422.633 353.227 421.433C353.227 420.233 352.217 419.26 350.971 419.26C349.725 419.26 348.715 420.233 348.715 421.433C348.715 422.633 349.725 423.606 350.971 423.606Z" fill="#F0E4E4"/>
<path opacity="0.1" d="M350.201 341.115H304.935C301.479 341.111 298.164 342.429 295.716 344.778C297.648 343.74 299.823 343.193 302.036 343.189H347.301C350.771 343.189 354.099 344.516 356.552 346.88C359.006 349.243 360.384 352.448 360.384 355.79V411.473C360.386 413.135 360.046 414.78 359.383 416.315C358.719 417.849 357.747 419.241 356.521 420.411C358.57 419.322 360.279 417.724 361.468 415.783C362.658 413.842 363.285 411.629 363.284 409.376V353.704C363.28 350.364 361.901 347.162 359.447 344.802C356.994 342.441 353.668 341.115 350.201 341.115V341.115Z" fill="black"/>
<path opacity="0.1" d="M327.389 393.141C334.196 393.141 339.714 387.827 339.714 381.271C339.714 374.715 334.196 369.401 327.389 369.401C320.582 369.401 315.064 374.715 315.064 381.271C315.064 387.827 320.582 393.141 327.389 393.141Z" fill="black"/>
<path d="M83.2226 414.762H62.0848C62.0848 414.762 55.4797 192.116 83.2226 123.412H88.5055C88.5055 123.412 70.0122 375.318 83.2226 414.762Z" fill="#38D39F"/>
<path d="M68.6903 111.961C68.6903 111.961 51.5193 157.76 59.4406 178.119C59.4406 178.119 71.3287 136.134 85.2001 129.773C99.0716 123.411 113.604 178.119 113.604 178.119C113.604 178.119 121.532 143.769 106.999 115.776C106.999 115.776 136.058 131.04 150.591 160.307C150.591 160.307 153.235 141.223 118.887 101.785C118.887 101.785 149.268 109.42 169.084 127.232C169.084 127.232 175.689 113.211 134.736 90.3353C134.736 90.3353 140.019 73.7975 171.734 81.4267C171.734 81.4267 171.734 59.8124 121.538 63.6153C121.538 63.6153 121.538 49.5952 154.563 52.1656C154.563 52.1656 154.563 34.3542 116.255 40.7158C116.255 40.7158 124.182 29.2661 129.465 26.6957C129.465 26.6957 118.899 25.4222 110.972 31.7839C110.972 31.7839 112.294 8.88435 92.4785 -0.0242615L89.8341 31.8248C89.8341 31.8248 67.6288 6.62361 72.6631 11.4664C73.9853 12.7399 77.946 28.0043 76.6237 35.6394C76.6237 35.6394 54.182 17.828 26.427 36.9129C26.427 36.9129 60.775 39.4599 66.0579 50.933C66.0579 50.933 36.9989 45.8449 30.3937 49.6595C30.3937 49.6595 52.8355 57.2946 51.5314 62.3827C51.5314 62.3827 11.9005 62.3827 6.64791 76.4029C6.64791 76.4029 47.6011 81.491 50.2395 85.3115C50.2395 85.3115 2.68724 118.393 0.0427551 127.296C0.0427551 127.296 48.9173 99.3082 56.8447 99.3082C64.7721 99.3082 21.1805 140.019 23.8189 150.201C23.7764 150.131 59.4406 109.42 68.6903 111.961Z" fill="#38D39F"/>
<g opacity="0.3">
<path opacity="0.3" d="M378.878 277.178H369.616C369.616 277.178 366.723 179.668 378.872 149.577H381.189C381.189 149.577 373.085 259.904 378.878 277.178Z" fill="#38D39F"/>
<path opacity="0.3" d="M372.509 144.571C372.509 144.571 364.988 164.631 368.457 173.546C368.457 173.546 373.662 155.156 379.739 152.369C385.816 149.583 392.179 173.546 392.179 173.546C392.179 173.546 395.648 158.503 389.286 146.241C389.286 146.241 402.023 152.93 408.38 165.741C408.38 165.741 409.538 157.382 394.496 140.108C394.496 140.108 407.803 143.449 416.483 151.254C416.483 151.254 419.376 145.126 401.441 135.095C401.441 135.095 403.758 127.852 417.641 131.193C417.641 131.193 417.641 121.718 395.654 123.394C395.654 123.394 395.654 117.267 410.12 118.382C410.12 118.382 410.12 110.584 393.344 113.37C393.344 113.37 396.813 108.358 399.13 107.242C399.13 107.242 394.502 106.658 391.033 109.474C391.033 109.474 391.639 99.4435 382.935 95.5412L381.777 109.474C381.777 109.474 372.072 98.4387 374.256 100.559C374.862 101.143 376.573 107.803 375.991 111.144C375.991 111.144 366.153 103.346 354.004 111.729C354.004 111.729 369.046 112.844 371.363 117.857C371.363 117.857 358.626 115.625 355.744 117.272C355.744 117.272 365.582 120.614 365 122.845C365 122.845 347.641 122.845 345.33 128.973C345.33 128.973 363.266 131.205 364.424 132.876C364.424 132.876 343.596 147.363 342.437 151.265C342.437 151.265 363.842 138.998 367.305 138.998C370.768 138.998 351.681 156.838 352.839 161.278C352.839 161.278 368.464 143.449 372.509 144.571Z" fill="#38D39F"/>
</g>
</g>
<defs>
<linearGradient id="paint0_linear" x1="221.979" y1="425.651" x2="221.979" y2="158.871" gradientUnits="userSpaceOnUse">
<stop stop-color="#808080" stop-opacity="0.25"/>
<stop offset="0.54" stop-color="#808080" stop-opacity="0.12"/>
<stop offset="1" stop-color="#808080" stop-opacity="0.1"/>
</linearGradient>
<linearGradient id="paint1_linear" x1="55068.5" y1="103974" x2="55068.5" y2="76174.3" gradientUnits="userSpaceOnUse">
<stop stop-color="#808080" stop-opacity="0.25"/>
<stop offset="0.54" stop-color="#808080" stop-opacity="0.12"/>
<stop offset="1" stop-color="#808080" stop-opacity="0.1"/>
</linearGradient>
<clipPath id="clip0">
<rect width="489" height="427" fill="white"/>
</clipPath>
</defs>
</svg>
